<svg xmlns="http://www.w3.org/2000/svg" aria-label="React logo" viewBox="0 0 841.9 595.3"><g fill="none" stroke="#61DAFB"><ellipse cx="420.9" cy="296.5" rx="45.7" ry="45.7"/><path stroke-width="29.7" d="M520.5 78.1c-44.3-25.6-102.7-39.7-166.6-39.7-63.9 0-122.3 14.1-166.6 39.7-44.8 25.9-70.1 60.8-70.1 98.1 0 37.4 25.3 72.2 70.1 98.1 44.3 25.6 102.7 39.7 166.6 39.7 63.9 0 122.3-14.1 166.6-39.7 44.8-25.9 70.1-60.8 70.1-98.1 0-37.3-25.3-72.2-70.1-98.1Z" transform="rotate(60 420.9 296.5)"/><path stroke-width="29.7" d="M520.5 78.1c-44.3-25.6-102.7-39.7-166.6-39.7-63.9 0-122.3 14.1-166.6 39.7-44.8 25.9-70.1 60.8-70.1 98.1 0 37.4 25.3 72.2 70.1 98.1 44.3 25.6 102.7 39.7 166.6 39.7 63.9 0 122.3-14.1 166.6-39.7 44.8-25.9 70.1-60.8 70.1-98.1 0-37.3-25.3-72.2-70.1-98.1Z" transform="rotate(120 420.9 296.5)"/><path stroke-width="29.7" d="M520.5 78.1c-44.3-25.6-102.7-39.7-166.6-39.7-63.9 0-122.3 14.1-166.6 39.7-44.8 25.9-70.1 60.8-70.1 98.1 0 37.4 25.3 72.2 70.1 98.1 44.3 25.6 102.7 39.7 166.6 39.7 63.9 0 122.3-14.1 166.6-39.7 44.8-25.9 70.1-60.8 70.1-98.1 0-37.3-25.3-72.2-70.1-98.1Z"/></g></svg>
