<svg xmlns="http://www.w3.org/2000/svg" aria-label="Vite logo" viewBox="0 0 410 404"><path fill="#41D1FF" d="M399.641 59.525L215.643 388.545c-3.23 5.787-11.523 5.793-14.761.012L10.594 59.526c-3.583-6.196 1.729-13.709 8.814-12.437l184.596 33.139a8 8 0 0 0 2.822 0L390.83 47.088c7.08-1.272 12.39 6.234 8.81 12.437Z"/><path fill="#BD34FE" d="M292.965.011L156.412 26.748a4 4 0 0 0-3.226 3.389l-8.4 141.255a4 4 0 0 0 4.858 4.18l38.014-8.77a4 4 0 0 1 4.759 4.635l-11.292 55.276a4 4 0 0 0 4.989 4.706l23.48-6.86a4 4 0 0 1 5.066 4.78l-17.942 86.312c-1.122 5.398 6.057 8.342 9.04 3.707l1.994-3.098 111.249-222.03a4 4 0 0 0-4.276-5.721l-39.118 7.548a4 4 0 0 1-4.64-5.171l25.52-88.444a4 4 0 0 0-4.502-5.099Z"/></svg>
